<mxfile host="Electron" modified="2023-10-21T12:51:06.224Z" agent="Mozilla/5.0 (X11; Linux x86_64) AppleWebKit/537.36 (KHTML, like Gecko) draw.io/22.0.3 Chrome/114.0.5735.289 Electron/25.8.4 Safari/537.36" etag="VK480FDj59F2dsnpsS7b" version="22.0.3" type="device">
  <diagram name="Page-1" id="8-k-mY7KUFh8GA_RN5Y8">
    <mxGraphModel dx="1712" dy="992" grid="1" gridSize="10" guides="1" tooltips="1" connect="1" arrows="1" fold="1" page="1" pageScale="1" pageWidth="3000" pageHeight="3000" math="0" shadow="0">
      <root>
        <mxCell id="0" />
        <mxCell id="1" parent="0" />
        <mxCell id="QVe0wcF0QApQOHolKE-v-3" value="int&lt;span style=&quot;white-space: pre;&quot;&gt;&#x9;&lt;/span&gt;ft_printf(const char *str, ...);" style="text;html=1;strokeColor=default;fillColor=none;align=center;verticalAlign=middle;whiteSpace=wrap;rounded=0;strokeWidth=1;" parent="1" vertex="1">
          <mxGeometry x="120" y="280" width="240" height="30" as="geometry" />
        </mxCell>
        <mxCell id="QVe0wcF0QApQOHolKE-v-1" value="" style="rounded=0;whiteSpace=wrap;html=1;" parent="1" vertex="1">
          <mxGeometry x="40" y="390" width="400" height="320" as="geometry" />
        </mxCell>
        <mxCell id="QVe0wcF0QApQOHolKE-v-6" value="&lt;div style=&quot;text-align: left;&quot;&gt;&lt;span style=&quot;background-color: initial;&quot;&gt;t_list&lt;span style=&quot;white-space: pre;&quot;&gt;&#x9;&lt;/span&gt;&lt;span style=&quot;white-space: pre;&quot;&gt;&#x9;&lt;/span&gt;&lt;/span&gt;&lt;span style=&quot;background-color: initial;&quot;&gt;vars_content;&lt;/span&gt;&lt;/div&gt;&lt;div style=&quot;text-align: left;&quot;&gt;&lt;span style=&quot;background-color: initial;&quot;&gt;int&lt;/span&gt;&lt;span style=&quot;background-color: initial; white-space: pre;&quot;&gt;&#x9;&lt;span style=&quot;white-space: pre;&quot;&gt;&#x9;&lt;/span&gt;&lt;/span&gt;&lt;span style=&quot;background-color: initial;&quot;&gt;index;&lt;/span&gt;&lt;/div&gt;&lt;div style=&quot;text-align: left;&quot;&gt;&lt;br&gt;&lt;/div&gt;&lt;span style=&quot;white-space: pre;&quot;&gt;&lt;/span&gt;" style="rounded=0;whiteSpace=wrap;html=1;" parent="1" vertex="1">
          <mxGeometry x="40" y="310" width="400" height="80" as="geometry" />
        </mxCell>
        <mxCell id="QVe0wcF0QApQOHolKE-v-7" value="return &#39;the number of the printed chars&#39;" style="rounded=0;whiteSpace=wrap;html=1;" parent="1" vertex="1">
          <mxGeometry x="40" y="710" width="400" height="30" as="geometry" />
        </mxCell>
        <mxCell id="GwShWn3k3BzJFO7VFMbU-1" value="&lt;span style=&quot;white-space: pre;&quot;&gt;&#x9;&lt;/span&gt;void&lt;span style=&quot;white-space: pre;&quot;&gt;&#x9;&lt;/span&gt;&lt;span style=&quot;white-space: pre;&quot;&gt;&#x9;&lt;span style=&quot;white-space: pre;&quot;&gt;&#x9;&lt;/span&gt;&lt;/span&gt;*content;&lt;br&gt;&lt;span style=&quot;white-space: pre;&quot;&gt;&#x9;&lt;/span&gt;int&lt;span style=&quot;white-space: pre;&quot;&gt;&#x9;&lt;span style=&quot;white-space: pre;&quot;&gt;&#x9;&lt;span style=&quot;white-space: pre;&quot;&gt;&#x9;&lt;/span&gt;&lt;/span&gt;i&lt;/span&gt;nchar_size;&lt;br&gt;&lt;span style=&quot;white-space: pre;&quot;&gt;&#x9;&lt;/span&gt;struct s_list&lt;span style=&quot;white-space: pre;&quot;&gt;&#x9;&lt;/span&gt;*next;" style="shape=parallelogram;perimeter=parallelogramPerimeter;whiteSpace=wrap;html=1;fixedSize=1;size=10;align=left;" vertex="1" parent="1">
          <mxGeometry x="40" y="40" width="190" height="160" as="geometry" />
        </mxCell>
        <mxCell id="GwShWn3k3BzJFO7VFMbU-2" value="s_list;&lt;span style=&quot;white-space: pre;&quot;&gt;&#x9;&lt;/span&gt;t_list;" style="text;html=1;strokeColor=default;fillColor=none;align=center;verticalAlign=middle;whiteSpace=wrap;rounded=0;strokeWidth=1;" vertex="1" parent="1">
          <mxGeometry x="80" y="10" width="120" height="30" as="geometry" />
        </mxCell>
        <mxCell id="GwShWn3k3BzJFO7VFMbU-4" value="" style="endArrow=classic;startArrow=classic;html=1;rounded=0;entryX=0.146;entryY=1.011;entryDx=0;entryDy=0;exitX=-0.005;exitY=0.192;exitDx=0;exitDy=0;exitPerimeter=0;entryPerimeter=0;" edge="1" parent="1" source="QVe0wcF0QApQOHolKE-v-6" target="GwShWn3k3BzJFO7VFMbU-1">
          <mxGeometry width="50" height="50" relative="1" as="geometry">
            <mxPoint x="140" y="380.6666666666667" as="sourcePoint" />
            <mxPoint x="100" y="320" as="targetPoint" />
            <Array as="points">
              <mxPoint x="10" y="300" />
            </Array>
          </mxGeometry>
        </mxCell>
        <mxCell id="GwShWn3k3BzJFO7VFMbU-6" value="void&lt;span style=&quot;white-space: pre;&quot;&gt;&#x9;&lt;/span&gt;ft_type_putchar(void *content, int&lt;span style=&quot;white-space: pre;&quot;&gt;&#x9;&lt;/span&gt;type);" style="text;html=1;strokeColor=default;fillColor=none;align=center;verticalAlign=middle;whiteSpace=wrap;rounded=0;strokeWidth=1;" vertex="1" parent="1">
          <mxGeometry x="520" y="10" width="320" height="30" as="geometry" />
        </mxCell>
        <mxCell id="GwShWn3k3BzJFO7VFMbU-7" value="" style="rounded=0;whiteSpace=wrap;html=1;" vertex="1" parent="1">
          <mxGeometry x="470" y="120" width="400" height="260" as="geometry" />
        </mxCell>
        <mxCell id="GwShWn3k3BzJFO7VFMbU-8" value="&lt;div style=&quot;text-align: left;&quot;&gt;&lt;br&gt;&lt;/div&gt;&lt;div style=&quot;text-align: left;&quot;&gt;&lt;br&gt;&lt;/div&gt;&lt;span style=&quot;white-space: pre;&quot;&gt;&lt;/span&gt;" style="rounded=0;whiteSpace=wrap;html=1;" vertex="1" parent="1">
          <mxGeometry x="470" y="40" width="400" height="80" as="geometry" />
        </mxCell>
        <mxCell id="GwShWn3k3BzJFO7VFMbU-9" value="return;" style="rounded=0;whiteSpace=wrap;html=1;" vertex="1" parent="1">
          <mxGeometry x="470" y="380" width="400" height="30" as="geometry" />
        </mxCell>
        <mxCell id="GwShWn3k3BzJFO7VFMbU-10" value="" style="shape=card;whiteSpace=wrap;html=1;" vertex="1" parent="1">
          <mxGeometry x="270" y="20" width="160" height="210" as="geometry" />
        </mxCell>
        <mxCell id="GwShWn3k3BzJFO7VFMbU-15" value="constants" style="rounded=1;whiteSpace=wrap;html=1;" vertex="1" parent="1">
          <mxGeometry x="370" y="10" width="70" height="25" as="geometry" />
        </mxCell>
      </root>
    </mxGraphModel>
  </diagram>
</mxfile>
